<svg width="128" height="128" viewBox="0 0 128 128" xmlns="http://www.w3.org/2000/svg">
  <g fill="none" stroke="currentColor" stroke-width="8" stroke-linecap="round" stroke-linejoin="round">
    <path d="M24 34C24 25.1634 41.9086 18 64 18C86.0914 18 104 25.1634 104 34C104 42.8366 86.0914 50 64 50C41.9086 50 24 42.8366 24 34Z"/>
    <path d="M24 34V66C24 74.8366 41.9086 82 64 82C68.9995 82 73.7848 81.6331 78.2304 80.9582"/>
    <path d="M24 66V94C24 102.837 41.9086 110 64 110C74.2667 110 83.6293 108.249 90.7118 105.356"/>
    <path d="M104 34V58"/>
    <path d="M89 70H118"/>
    <path d="M89 88H112"/>
    <path d="M89 106H118"/>
    <path d="M84 88L94 98L118 74"/>
  </g>
</svg>
